<?xml version="1.0" encoding="utf-8"?>
<!-- Generator: Adobe Illustrator 24.2.3, SVG Export Plug-In . SVG Version: 6.00 Build 0)  -->
<svg version="1.1" id="Layer_1" xmlns="http://www.w3.org/2000/svg" xmlns:xlink="http://www.w3.org/1999/xlink" x="0px" y="0px"
	 viewBox="0 0 1431 190" style="enable-background:new 0 0 1431 190;" xml:space="preserve">
<style type="text/css">
	.st0{fill:#180000;}
</style>
<g>
	<path class="st0" d="M199.5,104.2c3-5.7,6.1-11.2,9-17c0.9-1.9,1.1-4.2,1.6-6.3c0.4-1.6,0.5-3.3,1.2-4.7c1.4-2.7,3.9-5.1,4.6-7.9
		c1.6-6.8,4.5-12.8,8.4-18.5c2.1-3,4.2-6,6.2-9c8.6-4.3,19.1-4.6,28.4-4.8c15.8-0.4,31.6-0.7,47.3-1.1c7.9-0.2,7.9-12.4,0-12.2
		c-29.9,0.6-59.9,0.2-89.8-0.9c-3.1-0.4-6.2-0.5-9.4-0.3c-6,0.3-12-0.2-17.6-2.6c-2.5-1.1-5.3-1.4-7,1c-1.7,2.3-0.1,4.6,1.4,6.4
		c4.9,6,10.5,10.8,18.6,12c4.7,0.7,5.6,3.3,3.8,7.6c-1.2,2.7-1.5,5.8-2.4,8.7c-0.7,2.3-1.5,4.5-2.3,6.7c-0.6,1.9-1.7,3.7-1.8,5.6
		c-0.7,8.7-1.2,17.4-6.5,24.8c-0.4,0.6-0.5,1.4-0.8,2.1c-3.1,9.2-6.1,18.4-9.2,27.5c-1.5,4.4-2.9,4.9-6.7,2.2
		c-5.4-3.7-9.3-8.7-11.6-14.9c-2-5.4-3.8-10.9-6-16.2c-2.4-5.7-4.9-11.3-7.7-16.7c-2.4-4.7-5.2-9.2-7.8-13.8
		c-2.8-4.8-6.3-9.2-8.1-14.3c-2.8-7.9-7-14.9-11.7-21.9c-4-6.1-8.9-8.6-16-8.3c-2.5,0.1-5.4-0.9-7.7-2.3c-8-4.8-16.4-5.8-25.3-3.9
		c-4.3,0.9-5.8,4.7-3.1,7.7c4.8,5.4,10,10.6,17.5,12.2c6.8,1.5,9.5,5.8,7.6,12.5c-0.5,1.6-1.4,3.1-2,4.7c-1,2.5-2.3,5-2.9,7.7
		c-0.8,3.8-0.6,7.9-1.8,11.6c-4.2,13.9-8.9,27.7-13.3,41.6c-2.2,6.9-1.9,14.7-7.4,20.4c-0.3,0.3-0.4,0.8-0.4,1.2
		c-0.3,3.9-2.5,6.7-5,9.4c-1.6,1.7-3.3,3.4-4.5,5.4c-2.7,4.6-31.2,6.3-36.3,6c-3.2-0.2-6.4-0.3-9.6-0.4c-3.3-0.1-6,1-7.8,4
		c0,1.3,0,2.6,0,3.8c2,4,4.5,5.9,9.1,6.2c7.7,0.4,40.3,0.7,47.7-1c6.8-1.6,13.5-0.3,20.4-0.1c1.8,0.1,28.2,0.3,29.9-0.1
		c2.4-0.6,5.1-1.2,7-2.7c2.9-2.1,2.1-5.4-1.2-6.7c-2.3-0.9-4.6-1.9-6.9-2.4c-4.7-0.9-38.1-1.6-27.7-12.5c2.8-2.6,3.4-5.8,3.4-9.3
		c0-3.7,0.2-7.5,0-11.2c-0.1-3,0.7-5.4,2.7-7.5c3.2-3.2,5.1-7,6.2-11.3c3-11.6,6.3-23.2,9.3-34.8c0.9-3.4,3.3-4.9,6.2-5.7
		c2.9-0.8,5.3,0.5,6.9,2.9c1.3,2.1,2.2,4.4,3.2,6.6c2.4,5.2,4.4,10.6,7.2,15.6c1.6,2.8,3,5.4,2.6,8.6c-0.8,5.1,1.8,8.4,5.3,11.5
		c1.5,1.3,2.7,3.3,3.4,5.2c1.7,4.8,2.6,9.8,6.1,13.9c1,1.2,1.7,3.1,1.8,4.7c0.9,9.1,6.3,16.3,10,24.2c1.4,2.9,2.7,6,3.5,9.1
		c0.7,2.6,1.7,4.7,3.9,6.3c6.2,4.4,12.8,4.1,19.5,1.8c1.3-0.5,2.5-2.6,2.9-4.1c0.8-3.1-0.2-6-2.1-8.7c-2.4-3.5-3-7.1-0.5-11
		c1.5-2.3,2.9-4.7,3.9-7.3c2.3-6.1,4.2-12.3,6.4-18.4c1.7-4.6,3.4-9.2,3.2-14.2C198.7,105.8,199.1,104.9,199.5,104.2z"/>
	<path class="st0" d="M822.2,67.6c3.2-4.9,1.3-9.8-4.3-11.6c-7.3-2.2-14.7-3.5-22.4-3.1c-6,0.3-12.9,16.7-4.7,16.8
		c10.3,0.2-1,23.3-1.2,24c-3.1,9.2-6.1,18.4-9.2,27.5c-1.5,4.4-2.9,4.9-6.7,2.2c-5.4-3.7-9.3-8.7-11.6-14.9c-2-5.4-3.8-10.9-6-16.2
		c-2.4-5.7-4.9-11.3-7.7-16.7c-2.4-4.7-5.2-9.2-7.8-13.8c-2.8-4.8-6.3-9.2-8.1-14.3c-2.8-7.9-7-14.9-11.7-21.9
		c-4-6.1-8.9-8.6-16-8.3c-2.5,0.1-5.4-0.9-7.7-2.3c-8-4.8-16.4-5.8-25.3-3.9c-4.3,0.9-5.8,4.7-3.1,7.7c4.8,5.4,10,10.6,17.5,12.2
		c6.8,1.5,9.5,5.8,7.6,12.5c-0.5,1.6-1.4,3.1-2,4.7c-1,2.5-2.3,5-2.9,7.7c-0.8,3.8-0.6,7.9-1.8,11.6c-4.2,13.9-8.9,27.7-13.3,41.6
		c-2.2,6.9-1.9,14.7-7.4,20.4c-0.3,0.3-0.4,0.8-0.4,1.2c-0.3,3.9-2.5,6.7-5,9.4c-1.6,1.7-3.3,3.4-4.5,5.4c-2.7,4.6-6.7,6.3-11.8,6
		c-3.2-0.2-6.4-0.3-9.6-0.4c-3.3-0.1-6,1-7.8,4c0,1.3,0,2.6,0,3.8c2,4,4.5,8.4,9.1,8.6c7.7,0.4,15.8,0.7,23.2-1
		c6.8-1.6,13.5-2.8,20.4-2.5c1.8,0.1,3.7,0.3,5.4-0.1c2.4-0.6,5.1-1.2,7-2.7c2.9-2.1,2.1-5.4-1.2-6.7c-2.3-0.9-4.6-1.9-6.9-2.4
		c-4.7-0.9-6.7-9.2-3.2-12.5c2.8-2.6,3.4-5.8,3.4-9.3c0-3.7,0.2-7.5,0-11.2c-0.1-3,0.7-5.4,2.7-7.5c3.2-3.2,5.1-7,6.2-11.3
		c3-11.6,6.3-23.2,9.3-34.8c0.9-3.4,3.3-4.9,6.2-5.7c2.9-0.8,5.3,0.5,6.9,2.9c1.3,2.1,2.2,4.4,3.2,6.6c2.4,5.2,4.4,10.6,7.2,15.6
		c1.6,2.8,3,5.4,2.6,8.6c-0.8,5.1,1.8,8.4,5.3,11.5c1.5,1.3,2.7,3.3,3.4,5.2c1.7,4.8,2.6,9.8,6.1,13.9c1,1.2,1.7,3.1,1.8,4.7
		c0.9,9.1,6.3,16.3,10,24.2c1.4,2.9,2.7,6,3.5,9.1c0.7,2.6,1.7,4.7,3.9,6.3c6.2,4.4,12.8,4.1,19.5,1.8c1.3-0.5,2.5-2.6,2.9-4.1
		c0.8-3.1-0.2-6-2.1-8.7c-2.4-3.5-3-7.1-0.5-11c1.5-2.3,2.9-4.7,3.9-7.3c2.3-6.1,4.2-12.3,6.4-18.4c1.7-4.6,16-33.9,19.9-39.5
		C815.9,76.7,819.2,72.2,822.2,67.6z"/>
	<path class="st0" d="M978,37.7c6.6,0.2,10.8,3.7,12.7,9.8c0.3,1.1,0.8,2.2,1.2,3.3c0.7,1.8,1.7,4,3.9,3.3c1.5-0.5,2.7-2.3,3.8-3.7
		c0.5-0.7,0.4-1.8,0.7-2.8c0.8-2.8,1.4-5.8,2.6-8.4c3.1-6.8,5.1-13.8,3.3-21.3c-1.1-4.7-2.4-5.2-6.1-2.1c-3.9,3.3-8.1,4.8-13.4,4.7
		c-16.5-0.3-88-0.3-104.5-0.4c-4,0-8-1.1-12-1.3c-7.6-0.6-66.4-1.1-74-1.3c-6.9-0.2-13.3-1.5-18.6-6.3c-2.8-2.5-5.9-4.5-9-6.7
		c-5.5-4.1-8.3-3.9-13,1.1c-1.3,1.4-2.5,3.2-3.2,5.1c-1.4,3.9-5.3,30.8,1.6,35.7c3.5-0.7,5.8-3,7.5-6.2c3.5-6.1,8.7-10.1,15.8-9.9
		c7.6,0.3,15.2,1.6,22.7,3c6.3,1.1,62.2,0.7,60.4,6.9c-0.6,1.9-3,10.1-3.2,12.1c-0.7,6.9-1.2,13.8-5.2,19.8
		c-0.4,0.6-0.2,1.6-0.3,2.5c-0.3,2.7-0.1,5.5-0.8,8.1c-1.7,5.8-4,11.4-5.6,17.3c-1.6,6.1-2.5,12.5-4,18.7c-0.8,3.4-2.5,6.6-3.1,10
		c-0.8,4.4-0.9,8.9-1.5,13.3c-1,7.3-3.3,13.4-13.8,12.7c-3.3-0.2-6.6-0.4-9.8-0.8c-3-0.3-6.3,1.1-7,3.4c-1,3.1,0.3,5,3,6.6
		c1.6,0.9,3,2.1,4.3,3.4c3,2.9,6.4,3.2,10.4,2.4c11.9-2.4,23.8-2.6,35.9,0.1c5.4,1.2,11.3,0.7,16.9,0.5c1.2,0,2.7-1.8,3.5-3.2
		c0.3-0.4-1.1-2.3-2.1-2.9c-4.6-2.9-9.3-5.6-14-8.4c-2.8-1.7-4-3.8-2.9-7.2c0.7-2.2,1-4.6,1.2-6.9c0.6-5.3,3.1-10.5,1.4-16
		c-1.3-4-0.2-7.4,2.1-10.8c1.8-2.7,3.3-5.7,4.2-8.8c1-3.3,1.5-6.9,1.9-10.4c0.7-6.3,1.6-12.4,3.9-18.5c1.5-3.9,0.9-8.8,0.8-13.3
		c-0.1-7.8,2.7-14.6,6.9-20.9c2.2-3.2,5-5.7,9.2-5.7C902.8,37.3,968,37.5,978,37.7z"/>
	<path class="st0" d="M1167.9,68c1.6-6.3,4.2-12,7.8-17.4c3.3-4.9,6.7-9.6,10-14.5c3.3-4.9,1.4-9.9-4.1-11.6
		c-7.3-2.2-14.7-3.6-22.4-3.2c-6.1,0.3-12.2-0.2-17.9-2.7c-1-0.4-2.1-0.6-3.1-0.6c-3.5,0-5.2,2.4-3.8,5.5c0.7,1.6,1.8,3.2,3,4.5
		c4.8,5.2,10.2,9.3,17.6,10.2c2.3,0.3,4.9,1.8,4,4c-2.2,5.4-3.1,11.1-4,16.7c-0.1,0.4-0.4,0.8-0.7,1c-2.6,2.6-2.9,5.8-2.7,9.2
		c0.1,1.4,0.1,2.8-0.3,4.1c-1.9,6.2-1.5,13.2-6.3,18.5c-0.5,0.5-0.5,1.4-0.8,2.1c-3,9.1-6,18.2-9.1,27.2c-1.5,4.5-2.9,4.9-6.7,2.3
		c-5.5-3.8-9.5-8.8-11.8-15.2c-2-5.5-4-11-6.2-16.4c-2-4.7-4.7-9.1-6.4-13.8c-2.2-6.3-5.2-12-9.4-17.2c-3.2-4-6-8.7-7.6-13.5
		c-2.7-7.9-7-14.7-11.5-21.6c-4-6-8.9-8.9-16-8.2c-3,0.3-5.5-0.7-8.1-2.4c-7.6-5-16.2-5.8-24.9-3.9c-4.3,0.9-5.9,4.6-3.2,7.7
		c4.8,5.4,10,10.6,17.5,12.2c7,1.5,9.6,5.9,7.5,12.8c-0.5,1.6-1.4,3.1-2,4.7c-1,2.3-2.2,4.6-2.7,7.1c-0.8,3.9-0.7,8.1-1.8,11.9
		c-4.7,15.6-9.9,31-14.4,46.6c-1.5,5.2-2,10.7-5.9,14.9c-0.4,0.4-0.7,1.1-0.7,1.8c-0.3,4.1-2.8,7-5.4,9.9c-1.4,1.5-3,2.9-3.9,4.6
		c-2.8,5-7.1,6.7-12.6,6.3c-3.6-0.3-7.3-0.4-10.9-0.2c-4.2,0.3-6.4,3.1-5.9,6.8c0.6,4,5.2,9.5,9.2,9.6c8.1,0.2,16.3,1.6,24.2-1.2
		c5.3-1.9,10.6-3.1,16.2-2.4c2.6,0,5.2,0.3,7.7-0.1c2.6-0.4,5.3-1,7.4-2.4c3.2-2.1,2.5-5.7-1.1-7c-2.2-0.8-4.4-1.8-6.6-2.3
		c-4.9-1-6.7-9.2-3.3-12.4c2.9-2.7,3.4-6,3.4-9.6c0-3.7,0.2-7.5,0-11.2c-0.1-2.9,1-5,2.6-7.3c2.2-3,4.5-6.1,5.6-9.5
		c3.7-12.1,6.9-24.3,10.1-36.6c0.9-3.4,3.3-4.9,6.2-5.7c3.1-0.9,5.5,0.5,7.1,3.1c1.2,2,2.1,4.2,3,6.3c2.4,5.2,4.4,10.6,7.2,15.6
		c1.5,2.8,3.1,5.4,2.6,8.6c-0.9,5.3,2,8.5,5.5,11.8c1.3,1.2,2.4,3,3,4.7c1.8,5,2.7,10.3,6.4,14.5c1,1.1,1.5,2.9,1.7,4.4
		c0.8,9,6.1,16.1,9.8,24c1.5,3.1,2.4,6.5,3.9,9.6c0.9,2.1,1.9,4.4,3.5,5.8c6,4.9,12.9,4.5,19.7,2.2c1.3-0.4,2.5-2.5,2.9-4.1
		c0.8-3.1-0.2-6.1-2-8.7c-2.4-3.5-3.1-7.1-0.5-11c1.5-2.3,2.9-4.7,3.9-7.3c2.3-6.2,4.5-12.4,6.4-18.7c1.4-4.5,2.1-9.2,3.2-13.9
		c0.2-0.9,0.4-1.9,0.9-2.7c3-5.7,6.1-11.2,9-16.9c0.9-1.8,1-4,1.5-6c0.4-1.6,0.5-3.3,1.2-4.8C1164.6,73.4,1167.2,70.9,1167.9,68z"/>
	<path class="st0" d="M614.5,165.8c-4.6-1.3-11.6-8.1-16.2-9.3c-6.5-1.7-14.9,15.4-61.7,11.9c-18.2-8.6-44.6-24.6-48.6-31.2
		c-1.2-2-2.7-4-3.2-6.2c-0.9-3.6-3.5-5.7-5.5-8.4c-3-4-5.8-8.1-8-12.5c-1.8-3.7-2.5-7.9-3.7-11.9c-1.1-3.8-0.6-7.1,2.7-9.8
		c1.7-1.4,3.7-2.7,5-4.4c2.9-3.7,6.7-3.7,11-4c6.7-0.4,12.6-2.4,14.8-9.9c0.5-1.8,2-3.3,2.8-5c0.9-2.1,2.1-4.3,2-6.4
		c-0.2-3.5,1-6.3,2.9-9.2c3-4.7,2.2-6.5-3-8.6c-1.8-0.7-4-2-4.8-3.7c-1.4-2.8-2.2-6-2.7-9.1c-0.5-3.5-2.5-5.1-5.7-5.9
		c-6.8-1.6-13.8-2.8-20.3-5.2c-5.7-2.1-11.4-2.3-17.3-2.2c-6.4,0-12.8,0-19.2,0c-9.2,0-18.4,0-27.6,0c-1.4,0-2.8,0.2-4.1,0.6
		c-2.8,1-3.4,2.5-1.6,4.8c1.6,1.9,3.6,3.7,5.7,4.9c3.7,2.2,7.6,3.9,11.4,5.9c3.8,2.1,4.7,4.2,3.8,8.4c-1,5.1-2,10.2-3,15.3
		c-1.4,6.5-1.5,13.3-5.5,19.1c-1.8,2.7-2.6,6.2-3.3,9.4c-0.6,2.8-0.2,5.8-0.9,8.6c-1,4.2-2,8.5-4.1,12.2c-2.1,3.7-3.2,7.2-3.1,11.4
		c0.1,2.1-0.8,4.2-1.6,6.2c-0.9,2.2-2.6,4.2-3.2,6.4c-0.7,2.6-0.5,5.5-0.9,8.2c-3.4,21-11.3,18.9-20.5,21.2c-2,0.5-2.5,1.7-2.8,3.3
		c-0.1,7.3,9.4,1.7,15.2,3.5c8.2,2.6,16.7,2.8,25.1,1.7c4.6-0.6,32.4,0.8,36.9-0.8c0.9-0.3,1-2.8,0.8-3.6c-0.2-1.1-1.4-2.7-2.5-3
		c-6.9-1.8-30.7-2.4-29.3-7.9c1.2-4.8,3.5-15.2,4.8-20.1c0.8-3,2.1-5.9,3.1-8.9c0.9-2.5,1.8-5.1,2.5-7.7c1-3.7,1.3-7.6,2.8-11
		c2-4.4,9.1-4.8,11.9-1c9,12,16.6,24.8,21.3,39.1c1,3,37,29.3,38.4,32.1c37.1,22,82.1,12.8,86.9,12.6c5.9-0.3,24.8-6.2,25.3-9.9
		C618.7,170.5,618.6,167,614.5,165.8z M457.3,83.8c-4.1,2.6-8.3,4.5-13.2,3.7c-5.7-0.9-9.1-5.5-6.6-10.6c2.9-6,2.5-11.9,1.6-18
		c-0.5-3.2,0.1-5.8,3-7.8c2.9-2,4.2-4.9,4-8.5c-0.1-2.1,0.3-4.2,0.7-6.3c1.1-6.1,3.8-7.9,12.6-7.9c6.9-0.7,13.9,2.5,20.6,6.3
		c4.1,2.3,5.1,6.1,4.4,10.7c-0.7,4.6-0.9,9.3-1.3,13.9c-0.1,0.6,0.1,1.4-0.2,1.9c-5.2,7.8-8.2,17.7-19.5,19.6
		C461.4,81.2,459.3,82.6,457.3,83.8z"/>
	<path class="st0" d="M632.2,136.9c2.7-8.7,5.3-17.5,7.6-26.3c0.5-2-0.2-4.4-0.3-6.6c-0.4-0.1-0.9-0.3-1.3-0.4
		c-3.3,2.9-7.3,5.4-9.8,8.9c-2.8,4-6.2,5.4-10.6,6.2c-3.6,0.7-7.3,1.7-10.6,3.2c-5.4,2.4-10.8,4.4-16.9,3.9c-3.3-0.3-6.6,0-9.9-0.1
		c-8.4-0.1-15.2-3.9-20.9-9.7c-3.8-3.9-3-25.9,2.5-30.1c1.8-1.4,4.1-2.7,6.2-2.9c4.6-0.3,9.2,0.3,13.7,0.4c4.7,0.1,8.6,1.9,11.3,5.6
		c2.3,3.1,4.3,6.3,6.4,9.5c1.9,3,2.8,3.2,5.5,0.9c3.3-2.8,4.9-6.5,5.1-10.6c0.4-7.4,1.8-14.5,5.6-21.1c0.6-1,1.2-2.2,1.1-3.3
		c-0.1-1.9-0.1-4.6-1.2-5.5c-1.3-1-4-1-5.9-0.4c-1.9,0.6-3.6,2.2-5.3,3.5c-2.3,1.8-4.3,3.8-6.7,5.4c-1.2,0.9-2.9,1.5-4.4,1.4
		c-7,0-14.1-0.4-21.1-0.5c-9.1-0.1-6.7-18.4-6.1-19.3c2.6-3.9,5.9-7.2,7.1-12c0.3-1.2,2.4-2.6,3.9-2.7c7.1-0.9,14.1-4.9,21.5-1.6
		c0.6,0.3,14,0.1,14.7,0.2c7,0.5,12.7,3.3,16.8,9.2c2.6,3.7,6.3,5.2,10.7,5.6c4.8,0.5,7.6-1.6,8.9-6.3c0.9-3.3,2.1-6.4,2.9-9.7
		c0.3-1.3,0.2-3-0.4-4.2c-3.9-7.1-9.6-9.6-17.7-8c-7.9,1.6-28.2,1.8-35.9-0.8c-1.4-0.5-2.9-0.7-4.4-0.7c-10.2,0-20.3-0.2-30.5,0.2
		c-5.5,0.2-10.7-0.2-15.6-2.6c-4.3-2.1-8.9-2-13.5-1.7c-5,0.4-8.4,7-5.9,11.3c2.1,3.8,5,6.5,9.1,8.1c5.3,2,7.6,5.2,6.2,10.6
		c-1.9,7.4-1.5,15.1-4.2,22.4c-3.5,9.4-0.8,4.3-3.6,14c-0.2,0.7-0.4,1.4-0.5,2.2c-1.1,6.6-1.5,19-4.5,25.6
		c-2.5,5.6-6.7,9.1-13.2,9.8c-2.9,0.4-5.9,1.3-8.4,2.7c-3.6,1.9-4.4,5.2-2.3,8.7c3,5,7.3,8.3,13.5,8.3c11.6,0,23.1-0.1,34.7,0.1
		c4.5,0.1,9.1,1,13.6,1.4c1.9,0.2,3.8,0.1,5.7,0c4.1-0.4,8.2-1.2,12.3-1.4c6.6-0.2,13.3-0.1,19.9-0.1c5.3,0,10.6-0.5,15.8,1.7
		c1.8,0.8,4.2,0.4,6.3,0C630.2,139.3,631.8,138.1,632.2,136.9z"/>
	<path class="st0" d="M1306.1,41.8c0.8-3.1,2-6.1,2.6-9.2c0.3-1.7,0.5-4-0.4-5.3c-3.8-5.7-8-9.7-17.6-7.6
		c-7.7,1.7-15.5,1.9-23.1-0.8c-1.5-0.5-3.1-0.7-4.7-0.7c-10.1,0-20.1-0.2-30.2,0.2c-5.6,0.2-10.9-0.2-15.9-2.7
		c-4.3-2.1-8.9-2-13.5-1.6c-4.3,0.3-8.1,6.7-6.3,10.3c2,4.1,4.8,7.5,9.2,8.9c5.6,1.7,7.8,6,6.5,12.7c-0.8,4-1.1,8.2-1.6,12.3
		c-0.1,0.6,0,1.3-0.2,1.9c-2.1,7.5-4.1,15-6.3,22.4c-1.5,5-3.8,9.8-5,14.8c-1.5,6.6-2.3,13.4-3.4,20c-0.1,0.3-0.1,0.6-0.2,0.9
		c-2.9,6.8-5.6,13.8-8.8,20.5c-2.5,5.3-6.7,8.6-12.8,9.4c-2.9,0.4-5.9,1.3-8.4,2.7c-3.7,2-4.6,5.4-2.3,9c3.1,5,7.4,8.2,13.6,8.2
		c12.9,0,25.9,0,38.8,0c1.1,0,2.2-0.2,3.2,0.1c5.6,1.7,11.2,2.4,16.9,0c0.8-0.4,1.9-0.2,2.9-0.1c14.1,0.8,28.4-2,42.3,2.2
		c3.2,1,6.6-1,7.3-3.3c2.5-8.6,5.1-17.1,7.4-25.7c0.6-2.2,0-4.6-0.1-6.9c-0.5-0.2-1-0.3-1.5-0.5c-3.3,2.9-7.2,5.3-9.6,8.7
		c-2.9,4.2-6.6,5.6-11.2,6.4c-3.3,0.5-6.7,1.5-9.7,2.9c-5.6,2.6-11.2,4.7-17.5,4.1c-3.3-0.3-6.6,0-9.9-0.1c-8.4-0.2-15.2-4-20.8-9.8
		c-3.7-3.8-3.7-8.5-0.8-12.9c0.7-1.1,1.7-2.1,1.9-3.3c1-5.3,2.3-10.7,2.5-16.1c0.3-6.5,3.8-10.7,8.4-14.3c1.2-0.9,2.9-1.4,4.5-1.4
		c4.2,0,8.3,0.4,12.5,0.4c5.6,0,10,2.1,13.2,6.5c2,2.8,3.7,5.7,5.5,8.6c1.9,3.1,2.9,3.3,5.7,0.9c3.2-2.7,4.7-6.3,5-10.4
		c0.4-7.5,1.9-14.8,5.7-21.4c0.4-0.6,0.6-1.4,0.8-2.1c0.7-2.4,1.2-5-1-6.8c-2.3-1.9-4.9-1-7.2,0.4c-1.5,0.9-2.9,2.2-4.3,3.3
		c-2.2,1.7-4.2,3.7-6.5,5.2c-1.2,0.8-2.8,1.4-4.1,1.4c-7.2-0.1-14.5-0.4-21.7-0.5c-8.4-0.1-10-2.4-6.3-10c2.5-5.1,4.4-10.3,4.5-16.1
		c0-3.5-0.3-7.1,2.4-10.2c2.3-2.7,3.6-6.4,5.7-9.4c1-1.4,2.7-3,4.3-3.2c7.1-1.1,14.1-4.7,21.5-1.6c0.9,0.4,2.1,0.3,3.2,0.3
		c6.6,0.6,11.7,3.5,15.6,8.9c2.6,3.7,6.5,5.4,11,5.8C1302,48.4,1304.9,46.2,1306.1,41.8z"/>
	<path class="st0" d="M352.3,152.5c-5.6-1.7-7.7-5.3-6.3-10.8c0.6-2,1.7-4.1,1.7-6.1c0-7,2.2-13.1,6.7-18.5
		c4.4-5.2,6.9-10.9,5.1-17.9c-0.1-0.4,0-0.8-0.1-1.3c-0.1-3.3,0.8-5.8,3.7-8c4.2-3.2,6.4-7.6,6.4-13c0-2.1,0-4.3,0.7-6.2
		c2.1-5.7,4.7-11.1,6.9-16.8c1.3-3.4,3.1-7,3.3-10.5c0.6-9.8,0.7-14.7,0.7-24.5c0-5.1-3.1-8.4-8-9.3c-2.4-0.4-4.9-0.2-7.3-0.2
		c-3.2,0-4.7,1.9-5.4,4.8c-0.7,2.6-1.8,5.2-2.7,7.8c-0.4,1.4-0.9,2.9-1,4.3c-0.3,9.2-1,13.3-10.1,18.7c-0.1,0.1-0.1,0.2-0.2,0.2
		c-6.4,8.6-13.6,16.3-21.9,23.2c-15.7,13.1-28.5,29.5-45.1,41.7c-0.3,0.2-0.6,0.6-0.9,0.9c-6.6,6.5-12.9,13.2-19.8,19.4
		c-6.1,5.5-12.3,13.2-17.2,19.9c-2.6,3.6-6.5,5.1-10.9,5.2c-4.7,0.1-9.5-0.5-14.1,0.1c-5.8,0.7-11.5,2-17.1,3.3
		c-1.9,0.5-3.5-0.5-2.4,1.9c3.3,7.3,12.2,11.5,20.3,10.1c4.4-0.8,8.9-1.2,13.3-1.3c7.6-0.2,15.3,0.6,22.8-0.3
		c6.4-0.7,12.6-3.2,18.9-4.9c0.2-0.1,0.4-0.2,0.5-0.3c2.8-1.9,3.2-3.6,1.5-6.5c-1.3-2.2-2.8-1.9-3.8-4.2c-1.6-3.6-0.1-8.6,3.6-9.9
		c1.6-0.5,3.5-1,4.4-2.2c3.5-4.7,7-9.4,9.8-14.5c3.9-7.1,10.6-10.9,17.1-14.8c0.8-0.4,1.9-0.4,2.8-0.4c7.8,0,15.6,0,23.4,0
		c1.2,0,2.4,0.1,3.5,0.4c3.1,0.8,4.8,2.9,4,5.9c-0.6,2.3-2,4.6-3.6,6.5c-1.5,1.7-3.5,3.1-5.6,4.3c-2.4,1.3-3.3,3.3-4.1,5.7
		c-1.4,4.3-3.2,8.6-5.1,12.7c-2.1,4.5-5.8,6.2-10.9,6.3c-4.3,0.1-8.7,1.1-12.7,2.6c-3.9,1.4-4,5.2-0.1,7c3.3,1.6,7,2.8,10.6,2.9
		c15.1,0.1,30.2,0,45.2-0.5c4.1-0.1,8.1-1.4,12.1-2.7c1.8-0.5,3.2-2.2,5.5-3.8c-3.2-1.3-5.4-2.3-7.6-3
		C359.4,154.6,355.9,153.5,352.3,152.5z M332.3,99c-2.1-0.5-4.5-0.6-6.4-1.6c-2.9-1.4-3.4-3.4-1.3-6c2.3-2.9,5.3-5.3,7.6-8.1
		c1.8-2.2,3.2-4.7,4.5-7.1c2-3.6,3.3-7.6,5.6-11c2.5-3.7,7.1-4.9,10.5-3.5c3.1,1.2,4.2,3.6,3.1,6.7c-0.5,1.3-1.1,2.5-1.9,3.7
		c-3.1,4.7-5.9,9.6-6.8,15.3c0,0.1-0.1,0.2-0.1,0.3C344.6,96.2,341.4,98.6,332.3,99z"/>
	<path class="st0" d="M1416.3,22.8c-6.2-1.8-12.3-4.3-18.5-6.5c-6.8-2.5-14-3.4-20.8-1.2c-9.4,3-18.6,6.9-27.8,10.6
		c-1,0.4-1.9,1.8-2.3,2.9c-2.1,6.4-4,12.7-5.8,19.2c-1.1,3.7-0.4,7.3,1.2,10.9c1.1,2.4,2.1,4.9,2.3,7.5c0.8,12.1,7,21.4,13.6,30.7
		c1,1.4,2.1,2.9,2.4,4.5c0.8,4.9,3.4,8.7,6.2,12.5c4.3,5.7,6.7,12,7.1,19.4c0.6,11.4-6.2,21.6-16.7,23.7c-4.5,0.9-9.2,0.2-13.7,0.7
		c-7,0.8-12-1.9-16.8-7.2c-4.1-4.5-5.6-8.6-3.5-14.3c0.7-1.9,0.8-4.5,0.2-6.4c-0.5-1.5-2.5-2.9-4.1-3.4c-0.8-0.2-2.6,1.4-3.3,2.6
		c-3,4.9-6,9.9-8.6,15.1c-1.7,3.3-3.1,6.8-3.8,10.4c-1.1,5.7,1.4,8.6,6.9,9.5c4.9,0.9,9.9,1.8,14.5,3.6c15.6,6.1,31.1,5.8,46.6,0.1
		c3-1.1,5.7-3.4,8.1-5.6c3.6-3.3,6.7-7.1,10.2-10.5c4.3-4.1,7.1-9,6.9-15c-0.2-6-1.1-12-1.8-18c-0.5-4.7-0.9-9.3-3.6-13.5
		c-8.1-12.8-16.1-25.7-23.9-38.7c-1.5-2.6-2.3-5.8-2.8-8.9c-0.5-2.4-0.1-5.1-0.1-7.6c0-2.9,0-5.7,0-8.6c0-4.9,1.3-8.9,5.8-11.6
		c2.7-1.6,5-4,7.6-6c0.7-0.5,1.4-1.1,2.2-1.3c5.9-1.6,11.5-1.4,15.7,4.1c0.6,0.8,1.3,1.5,2.1,2.1c6.4,4.6,11.1,10,11.2,18.8
		c0,3.9,3.8,5.7,6,3.2c4.7-5.3,8.3-11.2,7.8-18.9C1422.7,27.3,1421,24.2,1416.3,22.8z"/>
	<path class="st0" d="M980,71c-1.2-1.1-3-1.9-4.6-1.9c-7.1-0.2-14.1-0.1-21.2-0.1c0,0,0,0,0,0c-6.9,0-13.7,0-20.6,0
		c-1.3,0-2.7,0.2-3.9,0.6c-2.8,0.8-4,3.8-2.3,6.3c1.1,1.6,2.7,3.1,4.3,3.9c3.4,1.7,9.3,3,12.9,4.3c3.5,1.3-16.9,43.8-16.4,51.8
		c0.3,4.8-0.9,9.2-2.7,13.6c-2.5,5.9-4.7,7.3-10.7,5.9c-3.8-0.9-7.1,0.3-10.1,2.5c-1.7,1.3-2.8,3.3-1.2,5.2c2.3,2.7,5.2,4.6,8.9,3.9
		c2-0.4,4-1,6-1.4c5.1-1.1,10.4-2.5,15.4,0c7,3.5,14.4,2.9,21.7,2.7c2.3,0,4.6-0.7,5-3.7c0.4-2.3-1.6-5-4.2-5.9
		c-1.6-0.6-3.3-1-5-1.6c-2.8-1.1-4-3-3.1-6.2c3.6-12.1,6.8-24.3,10.8-36.2c2.2-6.6,4.8-14.5,9.2-21.7c9.9-16.1,12.2-11.1,13.2-14.9
		C982.2,74.8,982.4,73.1,980,71z"/>
</g>
</svg>
