<svg width="24" height="24"  viewBox="0 0 59 48" xmlns="http://www.w3.org/2000/svg">
<path d="M53.1784 22.0808L50.0618 22.643L47.4352 25.454L49.2385 25.8417L44.6518 28.2262L42.3389 30.6107L39.0458 29.4669L38.4774 26.4426L36.6153 23.9031L37.4777 20.8788L36.3213 17.9128L37.3405 15.0824L38.1246 12.2908L40.3395 10.9144L40.81 8.02585L43.0837 4.61389L40.4375 1.27948L36.4389 0L32.4794 2.01616L33.2243 5.91276L33.9495 9.13086L33.5967 9.71244L34.6748 11.9612L34.1063 14.6947L34.7532 17.7577L32.1658 20.9952L30.6761 24.252L29.0296 25.3958L26.795 22.5848L24.9133 20.1616L23.7764 17.37L22.4827 14.7334L22.6983 11.6898L21.9731 8.43296L23.4432 9.24717L22.7963 5.48627L21.6595 2.75283L18.5429 1.16317L15.4066 2.86914L13.8777 6.10662L14.6814 10.3134L17.112 11.147L20.0914 12.252L20.0718 15.5089L21.1106 18.1842L21.6399 21.2278L23.3648 24.1163L21.8555 26.4814L18.7193 26.4233L15.289 24.4653L13.9365 21.6737L10.5651 20.8207L9.70266 17.6026H10.9179L10.0555 13.7254L6.78206 11.5347L3.0186 12.7173L0 15.315L1.37209 19.0178L3.82226 22.3134L6.35083 22.4103L9.36944 21.9645L11.0748 24.5816L13.4073 26.3457L16.3867 28.1292L17.1904 31.6381L18.6801 34.4879L18.9153 35.6704L20.0718 38.8691L21.2674 41.9903L23.1688 45.0339L26.1874 47.4572L30.0488 48L33.1262 46.042L36.1056 45.0339L39.3791 43.7157L41.0844 40.7108V37.2989L40.6532 37.2601L42.7309 33.9451L45.2203 30.7658L48.3957 31.1341L51.1007 30.4556L53.198 31.231L57.1771 30.0291L59 26.0937L57.3339 21.9838L52.6296 20.3166L53.1784 22.0808Z" fill="black"/>
</svg>
