<svg viewBox="0 0 36 36" fill="none" xmlns="http://www.w3.org/2000/svg">
<path d="M34.7061 35.25H34.9561V35V25V24.75H34.7061H32.7062H32.4562V25V32.7502H24.7061H24.4561V33.0002V35V35.25H24.7061H34.7061Z" fill="black" stroke="black" stroke-width="0.5"/>
<path d="M34.7061 35.25H34.9561V35V25V24.75H34.7061H32.7062H32.4562V25V32.7502H24.7061H24.4561V33.0002V35V35.25H24.7061H34.7061Z" fill="black" stroke="black" stroke-width="0.5"/>
<path d="M34.7061 35.25H34.9561V35V25V24.75H34.7061H32.7062H32.4562V25V32.7502H24.7061H24.4561V33.0002V35V35.25H24.7061H34.7061Z" fill="black" stroke="black" stroke-width="0.5"/>
<path d="M34.7061 35.25H34.9561V35V25V24.75H34.7061H32.7062H32.4562V25V32.7502H24.7061H24.4561V33.0002V35V35.25H24.7061H34.7061Z" fill="black" stroke="black" stroke-width="0.5"/>
<path d="M34.7061 35.25H34.9561V35V25V24.75H34.7061H32.7062H32.4562V25V32.7502H24.7061H24.4561V33.0002V35V35.25H24.7061H34.7061Z" fill="black" stroke="black" stroke-width="0.5"/>
<path d="M34.7061 35.25H34.9561V35V25V24.75H34.7061H32.7062H32.4562V25V32.7502H24.7061H24.4561V33.0002V35V35.25H24.7061H34.7061Z" fill="black" stroke="black" stroke-width="0.5"/>
<path d="M34.7061 35.25H34.9561V35V25V24.75H34.7061H32.7062H32.4562V25V32.7502H24.7061H24.4561V33.0002V35V35.25H24.7061H34.7061Z" fill="black" stroke="black" stroke-width="0.5"/>
<path d="M34.7061 35.25H34.9561V35V25V24.75H34.7061H32.7062H32.4562V25V32.7502H24.7061H24.4561V33.0002V35V35.25H24.7061H34.7061Z" fill="black" stroke="black" stroke-width="0.5"/>
<path d="M34.7061 11.25H34.9561V11V1V0.75H34.7061H24.7061H24.4561V1V2.99982V3.24982H24.7061H32.4562V11V11.25H32.7062H34.7061Z" fill="black" stroke="black" stroke-width="0.5"/>
<path d="M34.7061 11.25H34.9561V11V1V0.75H34.7061H24.7061H24.4561V1V2.99982V3.24982H24.7061H32.4562V11V11.25H32.7062H34.7061Z" fill="black" stroke="black" stroke-width="0.5"/>
<path d="M34.7061 11.25H34.9561V11V1V0.75H34.7061H24.7061H24.4561V1V2.99982V3.24982H24.7061H32.4562V11V11.25H32.7062H34.7061Z" fill="black" stroke="black" stroke-width="0.5"/>
<path d="M34.7061 11.25H34.9561V11V1V0.75H34.7061H24.7061H24.4561V1V2.99982V3.24982H24.7061H32.4562V11V11.25H32.7062H34.7061Z" fill="black" stroke="black" stroke-width="0.5"/>
<path d="M34.7061 11.25H34.9561V11V1V0.75H34.7061H24.7061H24.4561V1V2.99982V3.24982H24.7061H32.4562V11V11.25H32.7062H34.7061Z" fill="black" stroke="black" stroke-width="0.5"/>
<path d="M34.7061 11.25H34.9561V11V1V0.75H34.7061H24.7061H24.4561V1V2.99982V3.24982H24.7061H32.4562V11V11.25H32.7062H34.7061Z" fill="black" stroke="black" stroke-width="0.5"/>
<path d="M34.7061 11.25H34.9561V11V1V0.75H34.7061H24.7061H24.4561V1V2.99982V3.24982H24.7061H32.4562V11V11.25H32.7062H34.7061Z" fill="black" stroke="black" stroke-width="0.5"/>
<path d="M34.7061 11.25H34.9561V11V1V0.75H34.7061H24.7061H24.4561V1V2.99982V3.24982H24.7061H32.4562V11V11.25H32.7062H34.7061Z" fill="black" stroke="black" stroke-width="0.5"/>
<path d="M0.823223 33.1107L0.646447 33.2875L0.823223 33.4643L2.23751 34.8786L2.41429 35.0553L2.59106 34.8786L34.5946 2.875L34.7714 2.69822L34.5946 2.52145L33.1803 1.10716L33.0036 0.930382L32.8268 1.10716L0.823223 33.1107Z" fill="black" stroke="black" stroke-width="0.5"/>
<path d="M0.823223 2.53573L0.646447 2.7125L0.823223 2.88928L32.8268 34.8929L33.0036 35.0696L33.1803 34.8929L34.5946 33.4786L34.7714 33.3018L34.5946 33.125L2.59106 1.12144L2.41429 0.944664L2.23751 1.12144L0.823223 2.53573Z" fill="black" stroke="black" stroke-width="0.5"/>
</svg>
